# xmcd
#
# Track frame offsets:
#	150
#	14550
#	33198
#	47726
#	65563
#	81568
#	92348
#	105301
#	120664
#	135526
#	147422
#	166526
#	178789
#
# Disc length: 2544 seconds
#
# Revision: 0
# Processed by: cddbd v1.5.2PL0 Copyright (c) Steve Scherf et al.
# Submitted via: EasyCDDAExtractor 12.0.7.1
#
DISCID=a609ee0d
DTITLE=Janne Lærkedahl - Hver Aften Henad Otte
DYEAR=2010
DGENRE=Pop
TTITLE0=Høj Himmel
TTITLE1=Deirdres Samba
TTITLE2=Dark Moon
TTITLE3=Storbynat
TTITLE4=Lille Johnnys Mund Er Fuld Af Blod
TTITLE5=Duerne Flyver
TTITLE6=Stronger Than Steel
TTITLE7=Lange Nætter
TTITLE8=Noctourne
TTITLE9=Jeg Havde Tænkt
TTITLE10=Until I Couldn't Have You
TTITLE11=Synger I natten
TTITLE12=White Cliffs Of Dover
EXTD=
EXTT0=
EXTT1=
EXTT2=
EXTT3=
EXTT4=
EXTT5=
EXTT6=
EXTT7=
EXTT8=
EXTT9=
EXTT10=
EXTT11=
EXTT12=
PLAYORDER=
